{
.appVersion = "1230";
DisplayStrings = (
Q
);
customParameters = (
{
name = Axes;
value = (
{
Name = Weight;
Tag = wght;
},
{
}
);
},
{
name = "Enforce Compatibility Check";
value = 1;
}
);
date = "2019-01-07 00:33:32 +0000";
familyName = Slice;
featurePrefixes = (
{
automatic = 1;
code = "languagesystem DFLT dflt;\012";
name = Languagesystems;
}
);
fontMaster = (
{
alignmentZones = (
"{800, 16}",
"{700, 15}",
"{500, 15}",
"{0, -15}",
"{-200, -15}"
);
ascender = 718;
capHeight = 718;
custom = Heavy;
customValue = 200;
descender = -200;
iconName = Bold_Extended;
id = "3F0EE33B-F72D-4BDD-9E60-96B83BD7A098";
visible = 1;
weightValue = 800;
xHeight = 500;
}
);
glyphs = (
{
glyphname = A;
lastChange = "2019-06-22 21:52:20 +0000";
layers = (
{
layerId = "3F0EE33B-F72D-4BDD-9E60-96B83BD7A098";
paths = (
{
closed = 1;
nodes = (
"409 0 LINE",
"463 530 LINE",
"477 551 LINE",
"491 530 LINE",
"541 0 LINE",
"930 0 LINE",
"789 718 LINE",
"161 718 LINE",
"20 0 LINE"
);
},
{
closed = 1;
nodes = (
"733 156 LINE",
"739 318 LINE",
"212 318 LINE",
"212 146 LINE"
);
}
);
width = 950;
}
);
unicode = 0041;
},
{
glyphname = B;
lastChange = "2019-06-22 23:34:55 +0000";
layers = (
{
layerId = "3F0EE33B-F72D-4BDD-9E60-96B83BD7A098";
paths = (
{
closed = 1;
nodes = (
"400 0 LINE",
"400 718 LINE",
"20 718 LINE",
"20 0 LINE"
);
},
{
closed = 1;
nodes = (
"712 403 LINE",
"759 410 LINE SMOOTH",
"804 417 OFFCURVE",
"867 449 OFFCURVE",
"869 548 CURVE SMOOTH",
"872 683 OFFCURVE",
"807 718 OFFCURVE",
"692 718 CURVE SMOOTH",
"161 718 LINE",
"144 564 LINE",
"462 609 LINE",
"462 508 LINE",
"164 485 LINE",
"365 384 LINE"
);
},
{
closed = 1;
nodes = (
"678 0 LINE SMOOTH",
"805 0 OFFCURVE",
"898 47 OFFCURVE",
"898 199 CURVE SMOOTH",
"898 333 OFFCURVE",
"873 373 OFFCURVE",
"744 397 CURVE SMOOTH",
"712 403 LINE",
"365 397 LINE",
"227 245 LINE",
"463 279 LINE",
"462 150 LINE",
"217 135 LINE",
"190 0 LINE"
);
}
);
width = 918;
}
);
unicode = 0042;
},
{
glyphname = C;
lastChange = "2019-06-22 22:37:16 +0000";
layers = (
{
layerId = "3F0EE33B-F72D-4BDD-9E60-96B83BD7A098";
paths = (
{
closed = 1;
nodes = (
"839 0 LINE",
"839 338 LINE",
"401 325 LINE",
"401 399 LINE",
"839 386 LINE",
"839 718 LINE",
"74 718 LINE SMOOTH",
"43 718 OFFCURVE",
"20 699 OFFCURVE",
"20 667 CURVE",
"20 51 LINE",
"20 19 OFFCURVE",
"43 0 OFFCURVE",
"74 0 CURVE SMOOTH"
);
}
);
width = 859;
}
);
unicode = 0043;
},
{
glyphname = D;
lastChange = "2019-06-22 22:29:23 +0000";
layers = (
{
components = (
{
name = Stem;
}
);
layerId = "3F0EE33B-F72D-4BDD-9E60-96B83BD7A098";
paths = (
{
closed = 1;
nodes = (
"615 0 LINE SMOOTH",
"800 0 OFFCURVE",
"880 190 OFFCURVE",
"880 370 CURVE SMOOTH",
"880 549 OFFCURVE",
"799 718 OFFCURVE",
"615 718 CURVE SMOOTH",
"119 718 LINE",
"119 555 LINE",
"470 602 LINE",
"460 135 LINE",
"119 79 LINE",
"119 0 LINE"
);
}
);
width = 900;
}
);
unicode = 0044;
},
{
glyphname = E;
lastChange = "2019-06-21 22:23:27 +0000";
layers = (
{
layerId = "3F0EE33B-F72D-4BDD-9E60-96B83BD7A098";
paths = (
{
closed = 1;
nodes = (
"841 0 LINE",
"847 287 LINE",
"400 277 LINE",
"400 443 LINE",
"841 433 LINE",
"847 718 LINE",
"20 718 LINE",
"20 0 LINE"
);
},
{
closed = 1;
nodes = (
"776 329 LINE",
"782 391 LINE",
"255 391 LINE",
"255 319 LINE"
);
}
);
width = 867;
}
);
leftMetricsKey = H;
unicode = 0045;
},
{
glyphname = F;
lastChange = "2019-06-21 21:56:49 +0000";
layers = (
{
components = (
{
name = Stem;
},
{
alignment = -1;
name = Top_Arm;
}
);
layerId = "3F0EE33B-F72D-4BDD-9E60-96B83BD7A098";
paths = (
{
closed = 1;
nodes = (
"670 297 LINE",
"676 359 LINE",
"235 359 LINE",
"235 287 LINE"
);
}
);
width = 762;
}
);
leftMetricsKey = H;
unicode = 0046;
},
{
glyphname = G;
lastChange = "2019-06-22 22:29:52 +0000";
layers = (
{
layerId = "3F0EE33B-F72D-4BDD-9E60-96B83BD7A098";
paths = (
{
closed = 1;
nodes = (
"20 51 LINE SMOOTH",
"20 19 OFFCURVE",
"43 0 OFFCURVE",
"74 0 CURVE SMOOTH",
"689 0 LINE",
"826 178 LINE",
"400 125 LINE",
"400 592 LINE",
"471 602 LINE",
"466 423 LINE",
"828 429 LINE",
"828 692 LINE",
"828 710 OFFCURVE",
"812 719 OFFCURVE",
"798 719 CURVE",
"72 719 LINE SMOOTH",
"40 719 OFFCURVE",
"20 696 OFFCURVE",
"20 665 CURVE SMOOTH"
);
},
{
closed = 1;
nodes = (
"432 293 LINE",
"469 299 LINE",
"462 0 LINE",
"771 0 LINE SMOOTH",
"802 0 OFFCURVE",
"825 19 OFFCURVE",
"825 51 CURVE SMOOTH",
"828 380 LINE",
"435 367 LINE"
);
}
);
width = 848;
}
);
unicode = 0047;
},
{
glyphname = H;
lastChange = "2019-06-23 00:28:05 +0000";
layers = (
{
layerId = "3F0EE33B-F72D-4BDD-9E60-96B83BD7A098";
paths = (
{
closed = 1;
nodes = (
"400 0 LINE",
"400 718 LINE",
"20 718 LINE",
"20 0 LINE"
);
},
{
closed = 1;
nodes = (
"845 0 LINE",
"845 718 LINE",
"473 718 LINE",
"459 0 LINE"
);
},
{
closed = 1;
nodes = (
"622 394 LINE",
"181 394 LINE",
"187 322 LINE",
"622 312 LINE"
);
}
);
width = 865;
}
);
unicode = 0048;
},
{
glyphname = I;
lastChange = "2019-06-22 22:30:30 +0000";
layers = (
{
layerId = "3F0EE33B-F72D-4BDD-9E60-96B83BD7A098";
paths = (
{
closed = 1;
nodes = (
"404 1 LINE",
"400 719 LINE",
"20 709 LINE",
"22 0 LINE"
);
}
);
width = 424;
}
);
leftMetricsKey = H;
unicode = 0049;
},
{
glyphname = J;
lastChange = "2019-06-22 22:31:07 +0000";
layers = (
{
layerId = "3F0EE33B-F72D-4BDD-9E60-96B83BD7A098";
paths = (
{
closed = 1;
nodes = (
"792 0 LINE SMOOTH",
"824 0 OFFCURVE",
"844 23 OFFCURVE",
"844 54 CURVE SMOOTH",
"843 717 LINE",
"472 709 LINE",
"462 208 LINE",
"400 197 LINE",
"400 397 LINE",
"20 392 LINE",
"20 27 LINE",
"20 9 OFFCURVE",
"36 0 OFFCURVE",
"50 0 CURVE"
);
}
);
width = 864;
}
);
unicode = 004A;
},
{
glyphname = K;
lastChange = "2019-06-22 22:31:32 +0000";
layers = (
{
components = (
{
name = Stem;
}
);
layerId = "3F0EE33B-F72D-4BDD-9E60-96B83BD7A098";
paths = (
{
closed = 1;
nodes = (
"757 356 LINE",
"771 366 LINE",
"954 718 LINE",
"530 718 LINE",
"418 392 LINE",
"398 379 LINE",
"398 333 LINE"
);
},
{
closed = 1;
nodes = (
"398 329 LINE",
"417 313 LINE",
"530 0 LINE",
"954 0 LINE",
"771 345 LINE",
"757 356 LINE",
"398 375 LINE"
);
}
);
width = 974;
}
);
unicode = 004B;
},
{
glyphname = L;
lastChange = "2019-06-22 21:58:09 +0000";
layers = (
{
layerId = "3F0EE33B-F72D-4BDD-9E60-96B83BD7A098";
paths = (
{
closed = 1;
nodes = (
"790 1 LINE",
"800 300 LINE",
"402 300 LINE",
"401 722 LINE",
"20 711 LINE",
"22 52 LINE SMOOTH",
"22 20 OFFCURVE",
"45 0 OFFCURVE",
"76 0 CURVE SMOOTH"
);
}
);
width = 820;
}
);
unicode = 004C;
},
{
glyphname = M;
lastChange = "2019-06-22 22:39:47 +0000";
layers = (
{
components = (
{
name = Stem;
},
{
alignment = -1;
name = Stem;
transform = "{1, 0, 0, 1, 616, 0}";
}
);
layerId = "3F0EE33B-F72D-4BDD-9E60-96B83BD7A098";
paths = (
{
closed = 1;
nodes = (
"518 344 LINE",
"510 357 LINE",
"400 718 LINE",
"400 268 LINE",
"505 17 LINE",
"518 0 LINE"
);
},
{
closed = 1;
nodes = (
"531 17 LINE",
"636 268 LINE",
"636 718 LINE",
"526 357 LINE",
"518 344 LINE",
"518 0 LINE"
);
}
);
width = 1036;
}
);
unicode = 004D;
},
{
glyphname = N;
lastChange = "2019-06-22 22:31:48 +0000";
layers = (
{
components = (
{
name = Stem;
},
{
alignment = -1;
name = Stem;
transform = "{1, 0, 0, 1, 465, 0}";
}
);
layerId = "3F0EE33B-F72D-4BDD-9E60-96B83BD7A098";
paths = (
{
closed = 1;
nodes = (
"501 286 LINE",
"485 355 LINE",
"463 360 LINE",
"400 718 LINE",
"400 291 LINE",
"419 286 LINE",
"485 0 LINE"
);
}
);
width = 885;
}
);
unicode = 004E;
},
{
glyphname = O;
lastChange = "2019-06-22 22:32:17 +0000";
layers = (
{
layerId = "3F0EE33B-F72D-4BDD-9E60-96B83BD7A098";
paths = (
{
closed = 1;
nodes = (
"642 0 LINE SMOOTH",
"813 0 OFFCURVE",
"846 99 OFFCURVE",
"846 201 CURVE SMOOTH",
"846 517 LINE SMOOTH",
"846 619 OFFCURVE",
"813 718 OFFCURVE",
"642 718 CURVE SMOOTH",
"224 718 LINE SMOOTH",
"53 718 OFFCURVE",
"20 619 OFFCURVE",
"20 517 CURVE SMOOTH",
"20 201 LINE SMOOTH",
"20 99 OFFCURVE",
"53 0 OFFCURVE",
"224 0 CURVE SMOOTH"
);
},
{
closed = 1;
nodes = (
"400 592 LINE",
"471 602 LINE",
"461 135 LINE",
"400 125 LINE"
);
}
);
width = 866;
}
);
unicode = 004F;
},
{
glyphname = P;
lastChange = "2019-06-22 22:32:33 +0000";
layers = (
{
components = (
{
name = Stem;
}
);
layerId = "3F0EE33B-F72D-4BDD-9E60-96B83BD7A098";
paths = (
{
closed = 1;
nodes = (
"680 168 LINE SMOOTH",
"842 168 OFFCURVE",
"922 306 OFFCURVE",
"922 444 CURVE SMOOTH",
"922 581 OFFCURVE",
"841 718 OFFCURVE",
"680 718 CURVE SMOOTH",
"158 718 LINE",
"158 468 LINE",
"539 474 LINE",
"549 404 LINE",
"158 404 LINE",
"158 168 LINE"
);
}
);
width = 942;
}
);
unicode = 0050;
},
{
glyphname = Q;
lastChange = "2019-06-22 21:43:15 +0000";
layers = (
{
components = (
{
name = O;
}
);
layerId = "3F0EE33B-F72D-4BDD-9E60-96B83BD7A098";
paths = (
{
closed = 1;
nodes = (
"701 -54 LINE",
"536 -36 LINE",
"536 38 LINE",
"305 23 LINE",
"358 -131 LINE",
"366 -150 OFFCURVE",
"378 -167 OFFCURVE",
"392 -176 CURVE SMOOTH",
"408 -187 OFFCURVE",
"427 -191 OFFCURVE",
"509 -187 CURVE SMOOTH",
"686 -179 LINE"
);
}
);
width = 856;
}
);
leftMetricsKey = O;
unicode = 0051;
},
{
glyphname = R;
lastChange = "2019-06-22 17:06:56 +0000";
layers = (
{
components = (
{
name = P;
}
);
layerId = "3F0EE33B-F72D-4BDD-9E60-96B83BD7A098";
paths = (
{
closed = 1;
nodes = (
"901 0 LINE",
"761 315 LINE",
"445 315 LINE",
"445 170 LINE",
"507 0 LINE"
);
}
);
width = 922;
}
);
unicode = 0052;
},
{
glyphname = S;
lastChange = "2019-06-22 22:33:21 +0000";
layers = (
{
layerId = "3F0EE33B-F72D-4BDD-9E60-96B83BD7A098";
paths = (
{
closed = 1;
nodes = (
"891 0 LINE SMOOTH",
"919 0 OFFCURVE",
"934 25 OFFCURVE",
"934 47 CURVE SMOOTH",
"934 370 LINE SMOOTH",
"934 397 OFFCURVE",
"926 413 OFFCURVE",
"891 412 CURVE SMOOTH",
"405 404 LINE",
"408 450 LINE",
"927 450 LINE",
"935 718 LINE",
"80 718 LINE SMOOTH",
"49 718 OFFCURVE",
"26 698 OFFCURVE",
"26 666 CURVE SMOOTH",
"26 337 LINE SMOOTH",
"26 323 OFFCURVE",
"35 307 OFFCURVE",
"53 307 CURVE SMOOTH",
"555 316 LINE",
"552 269 LINE",
"26 269 LINE",
"20 0 LINE"
);
}
);
width = 955;
}
);
unicode = 0053;
},
{
glyphname = T;
lastChange = "2019-06-22 00:09:04 +0000";
layers = (
{
components = (
{
alignment = -1;
name = Stem;
transform = "{1, 0, 0, 1, 220, 0}";
}
);
layerId = "3F0EE33B-F72D-4BDD-9E60-96B83BD7A098";
paths = (
{
closed = 1;
nodes = (
"843 718 LINE",
"20 718 LINE",
"20 387 LINE",
"837 369 LINE"
);
}
);
width = 863;
}
);
unicode = 0054;
},
{
glyphname = U;
lastChange = "2019-06-22 23:33:14 +0000";
layers = (
{
layerId = "3F0EE33B-F72D-4BDD-9E60-96B83BD7A098";
paths = (
{
closed = 1;
nodes = (
"791 0 LINE SMOOTH",
"822 0 OFFCURVE",
"845 19 OFFCURVE",
"845 51 CURVE SMOOTH",
"845 719 LINE",
"472 715 LINE",
"462 202 LINE",
"400 192 LINE",
"400 718 LINE",
"20 713 LINE",
"20 51 LINE SMOOTH",
"20 19 OFFCURVE",
"43 0 OFFCURVE",
"74 0 CURVE SMOOTH"
);
}
);
width = 865;
}
);
unicode = 0055;
},
{
glyphname = V;
lastChange = "2019-06-22 22:34:46 +0000";
layers = (
{
layerId = "3F0EE33B-F72D-4BDD-9E60-96B83BD7A098";
paths = (
{
closed = 1;
nodes = (
"476 -1 LINE",
"476 281 LINE",
"461 316 LINE",
"424 718 LINE",
"30 718 LINE",
"241 -1 LINE"
);
},
{
closed = 1;
nodes = (
"942 718 LINE",
"548 718 LINE",
"491 316 LINE",
"476 281 LINE",
"476 -1 LINE",
"711 -1 LINE"
);
}
);
width = 952;
}
);
unicode = 0056;
},
{
glyphname = W;
lastChange = "2019-06-22 22:34:54 +0000";
layers = (
{
layerId = "3F0EE33B-F72D-4BDD-9E60-96B83BD7A098";
paths = (
{
closed = 1;
nodes = (
"591 0 LINE",
"649 216 LINE",
"660 236 LINE",
"802 718 LINE",
"518 718 LINE",
"488 367 LINE",
"476 351 LINE",
"476 0 LINE"
);
},
{
closed = 1;
nodes = (
"844 0 LINE",
"844 351 LINE",
"833 367 LINE",
"802 718 LINE",
"518 718 LINE",
"660 236 LINE",
"671 216 LINE",
"729 0 LINE"
);
},
{
closed = 1;
nodes = (
"476 0 LINE",
"476 351 LINE",
"465 367 LINE",
"414 718 LINE",
"20 718 LINE",
"241 0 LINE"
);
},
{
closed = 1;
nodes = (
"1300 718 LINE",
"906 718 LINE",
"855 367 LINE",
"844 351 LINE",
"844 0 LINE",
"1079 0 LINE"
);
}
);
width = 1320;
}
);
unicode = 0057;
},
{
glyphname = X;
lastChange = "2019-06-22 22:34:59 +0000";
layers = (
{
layerId = "3F0EE33B-F72D-4BDD-9E60-96B83BD7A098";
paths = (
{
closed = 1;
nodes = (
"404 -1 LINE",
"497 197 LINE",
"506 210 LINE",
"506 391 LINE",
"291 443 LINE",
"240 359 LINE",
"227 348 LINE",
"20 -1 LINE"
);
},
{
closed = 1;
nodes = (
"506 326 LINE",
"506 507 LINE",
"495 521 LINE",
"404 718 LINE",
"20 718 LINE",
"226 371 LINE",
"240 359 LINE",
"291 276 LINE"
);
},
{
closed = 1;
nodes = (
"785 348 LINE",
"772 359 LINE",
"721 443 LINE",
"506 391 LINE",
"506 210 LINE",
"515 197 LINE",
"608 -1 LINE",
"992 -1 LINE"
);
},
{
closed = 1;
nodes = (
"772 359 LINE",
"786 371 LINE",
"992 718 LINE",
"608 718 LINE",
"517 521 LINE",
"506 507 LINE",
"506 326 LINE",
"721 276 LINE"
);
}
);
width = 1012;
}
);
unicode = 0058;
},
{
glyphname = Y;
lastChange = "2019-06-22 22:35:26 +0000";
layers = (
{
layerId = "3F0EE33B-F72D-4BDD-9E60-96B83BD7A098";
paths = (
{
closed = 1;
nodes = (
"664 1 LINE",
"664 318 LINE",
"284 319 LINE",
"284 0 LINE"
);
},
{
closed = 1;
nodes = (
"476 500 LINE",
"464 516 LINE",
"414 718 LINE",
"30 718 LINE",
"277 240 LINE",
"284 212 LINE",
"311 155 LINE",
"476 198 LINE"
);
},
{
closed = 1;
nodes = (
"641 155 LINE",
"668 212 LINE",
"675 240 LINE",
"922 718 LINE",
"538 718 LINE",
"488 516 LINE",
"476 500 LINE",
"476 198 LINE"
);
}
);
width = 952;
}
);
unicode = 0059;
},
{
glyphname = Z;
lastChange = "2019-06-22 22:40:02 +0000";
layers = (
{
layerId = "3F0EE33B-F72D-4BDD-9E60-96B83BD7A098";
paths = (
{
closed = 1;
nodes = (
"321 302 LINE",
"343 315 LINE",
"798 409 LINE",
"424 418 LINE",
"408 408 LINE",
"26 310 LINE"
);
},
{
closed = 1;
nodes = (
"805 718 LINE",
"23 718 LINE",
"23 427 LINE",
"799 409 LINE"
);
},
{
closed = 1;
nodes = (
"20 1 LINE",
"802 1 LINE",
"802 292 LINE",
"26 310 LINE"
);
}
);
width = 825;
}
);
unicode = 005A;
},
{
glyphname = C.001;
lastChange = "2019-06-22 22:35:45 +0000";
layers = (
{
background = {
paths = (
{
closed = 1;
nodes = (
"401 592 LINE",
"472 602 LINE",
"467 399 LINE",
"847 405 LINE",
"847 691 LINE",
"847 709 OFFCURVE",
"831 718 OFFCURVE",
"817 718 CURVE SMOOTH",
"74 717 LINE SMOOTH",
"43 717 OFFCURVE",
"20 698 OFFCURVE",
"20 666 CURVE SMOOTH",
"20 51 LINE",
"20 19 OFFCURVE",
"43 0 OFFCURVE",
"74 0 CURVE SMOOTH",
"789 0 LINE SMOOTH",
"820 0 OFFCURVE",
"843 19 OFFCURVE",
"843 51 CURVE SMOOTH",
"846 356 LINE",
"467 343 LINE",
"460 148 LINE",
"401 145 LINE"
);
}
);
};
layerId = "3F0EE33B-F72D-4BDD-9E60-96B83BD7A098";
paths = (
{
closed = 1;
nodes = (
"401 592 LINE",
"472 602 LINE",
"467 399 LINE",
"847 405 LINE",
"847 691 LINE",
"847 709 OFFCURVE",
"831 718 OFFCURVE",
"817 718 CURVE SMOOTH",
"74 717 LINE SMOOTH",
"43 717 OFFCURVE",
"20 698 OFFCURVE",
"20 666 CURVE SMOOTH",
"20 51 LINE",
"20 19 OFFCURVE",
"43 0 OFFCURVE",
"74 0 CURVE SMOOTH",
"789 0 LINE SMOOTH",
"820 0 OFFCURVE",
"843 19 OFFCURVE",
"843 51 CURVE SMOOTH",
"846 356 LINE",
"467 343 LINE",
"460 148 LINE",
"401 145 LINE"
);
}
);
width = 866;
}
);
},
{
glyphname = G.001;
lastChange = "2019-06-22 16:53:53 +0000";
layers = (
{
layerId = "3F0EE33B-F72D-4BDD-9E60-96B83BD7A098";
paths = (
{
closed = 1;
nodes = (
"968 692 LINE SMOOTH",
"968 710 OFFCURVE",
"952 719 OFFCURVE",
"938 719 CURVE SMOOTH",
"72 719 LINE SMOOTH",
"40 719 OFFCURVE",
"20 696 OFFCURVE",
"20 665 CURVE SMOOTH",
"20 51 LINE SMOOTH",
"20 19 OFFCURVE",
"43 0 OFFCURVE",
"74 0 CURVE SMOOTH",
"911 0 LINE SMOOTH",
"942 0 OFFCURVE",
"965 19 OFFCURVE",
"965 51 CURVE SMOOTH",
"965 345 LINE SMOOTH",
"965 377 OFFCURVE",
"942 397 OFFCURVE",
"911 396 CURVE SMOOTH",
"430 388 LINE",
"428 236 LINE",
"691 229 LINE",
"691 196 LINE",
"372 185 LINE",
"360 443 LINE",
"968 443 LINE"
);
}
);
width = 988;
}
);
leftMetricsKey = H;
},
{
glyphname = I.001;
lastChange = "2019-06-22 22:36:06 +0000";
layers = (
{
layerId = "3F0EE33B-F72D-4BDD-9E60-96B83BD7A098";
paths = (
{
closed = 1;
nodes = (
"404 1 LINE",
"400 505 LINE",
"20 495 LINE",
"22 0 LINE"
);
},
{
closed = 1;
nodes = (
"404 541 LINE",
"400 719 LINE",
"20 709 LINE",
"22 540 LINE"
);
}
);
width = 424;
}
);
},
{
glyphname = zero;
lastChange = "2019-06-23 00:07:19 +0000";
layers = (
{
layerId = "3F0EE33B-F72D-4BDD-9E60-96B83BD7A098";
paths = (
{
closed = 1;
nodes = (
"687 0 LINE SMOOTH",
"808 0 OFFCURVE",
"841 59 OFFCURVE",
"841 151 CURVE SMOOTH",
"841 567 LINE SMOOTH",
"841 659 OFFCURVE",
"808 718 OFFCURVE",
"687 718 CURVE SMOOTH",
"174 718 LINE SMOOTH",
"53 718 OFFCURVE",
"20 659 OFFCURVE",
"20 567 CURVE SMOOTH",
"20 151 LINE SMOOTH",
"20 59 OFFCURVE",
"53 0 OFFCURVE",
"174 0 CURVE SMOOTH"
);
},
{
closed = 1;
nodes = (
"400 591 LINE",
"461 592 LINE",
"461 125 LINE",
"400 124 LINE"
);
}
);
width = 861;
}
);
unicode = 0030;
},
{
glyphname = one;
lastChange = "2019-06-23 00:12:28 +0000";
layers = (
{
layerId = "3F0EE33B-F72D-4BDD-9E60-96B83BD7A098";
paths = (
{
closed = 1;
nodes = (
"174 718 LINE SMOOTH",
"53 718 OFFCURVE",
"20 659 OFFCURVE",
"20 567 CURVE",
"25 337 LINE",
"258 357 LINE",
"268 587 LINE",
"315 592 LINE",
"317 0 LINE",
"699 0 LINE",
"697 567 LINE",
"697 659 OFFCURVE",
"664 718 OFFCURVE",
"543 718 CURVE SMOOTH"
);
},
{
closed = 1;
nodes = (
"25 207 LINE",
"25 0 LINE",
"783 0 LINE",
"783 238 LINE"
);
}
);
width = 803;
}
);
unicode = 0031;
},
{
glyphname = period;
lastChange = "2019-06-23 00:22:21 +0000";
layers = (
{
layerId = "3F0EE33B-F72D-4BDD-9E60-96B83BD7A098";
paths = (
{
closed = 1;
nodes = (
"248 -6 OFFCURVE",
"295 29 OFFCURVE",
"295 112 CURVE SMOOTH",
"295 196 OFFCURVE",
"248 233 OFFCURVE",
"162 233 CURVE SMOOTH",
"64 233 OFFCURVE",
"20 196 OFFCURVE",
"20 112 CURVE SMOOTH",
"20 29 OFFCURVE",
"64 -6 OFFCURVE",
"162 -6 CURVE SMOOTH"
);
}
);
width = 315;
}
);
unicode = 002E;
},
{
glyphname = exclam;
lastChange = "2019-06-23 00:28:44 +0000";
layers = (
{
layerId = "3F0EE33B-F72D-4BDD-9E60-96B83BD7A098";
paths = (
{
closed = 1;
nodes = (
"23 221 LINE",
"400 214 LINE",
"404 718 LINE",
"22 719 LINE"
);
},
{
closed = 1;
nodes = (
"20 -3 LINE",
"400 0 LINE",
"404 178 LINE",
"22 171 LINE"
);
}
);
width = 424;
}
);
unicode = 0021;
},
{
glyphname = exclamdown;
lastChange = "2019-06-23 00:29:22 +0000";
layers = (
{
layerId = "3F0EE33B-F72D-4BDD-9E60-96B83BD7A098";
paths = (
{
closed = 1;
nodes = (
"404 0 LINE",
"400 504 LINE",
"23 497 LINE",
"22 -1 LINE"
);
},
{
closed = 1;
nodes = (
"404 540 LINE",
"400 718 LINE",
"20 721 LINE",
"22 547 LINE"
);
}
);
width = 424;
}
);
unicode = 00A1;
},
{
glyphname = dollar;
lastChange = "2019-06-23 00:08:06 +0000";
layers = (
{
components = (
{
alignment = -1;
name = S;
transform = "{0.8438, 0, 0, 0.79007, 3, 81}";
}
);
layerId = "3F0EE33B-F72D-4BDD-9E60-96B83BD7A098";
paths = (
{
closed = 1;
nodes = (
"567 500 LINE",
"567 718 LINE",
"247 718 LINE",
"247 500 LINE"
);
},
{
closed = 1;
nodes = (
"567 0 LINE",
"567 218 LINE",
"247 218 LINE",
"247 0 LINE"
);
}
);
width = 812;
}
);
unicode = 0024;
},
{
glyphname = Round_Stem;
lastChange = "2019-06-21 21:56:49 +0000";
layers = (
{
layerId = "3F0EE33B-F72D-4BDD-9E60-96B83BD7A098";
paths = (
{
closed = 1;
nodes = (
"340 0 LINE",
"340 718 LINE",
"74 718 LINE SMOOTH",
"43 718 OFFCURVE",
"20 698 OFFCURVE",
"20 666 CURVE",
"20 52 LINE",
"20 20 OFFCURVE",
"43 0 OFFCURVE",
"74 0 CURVE SMOOTH"
);
}
);
width = 360;
}
);
},
{
glyphname = Stem;
lastChange = "2019-06-21 21:59:53 +0000";
layers = (
{
layerId = "3F0EE33B-F72D-4BDD-9E60-96B83BD7A098";
paths = (
{
closed = 1;
nodes = (
"400 0 LINE",
"400 718 LINE",
"20 718 LINE",
"20 0 LINE"
);
}
);
width = 420;
}
);
},
{
glyphname = Bottom_Arm;
lastChange = "2019-06-21 21:56:49 +0000";
layers = (
{
layerId = "3F0EE33B-F72D-4BDD-9E60-96B83BD7A098";
paths = (
{
closed = 1;
nodes = (
"682 0 LINE",
"688 242 LINE",
"20 220 LINE",
"20 0 LINE"
);
}
);
width = 708;
}
);
},
{
glyphname = Top_Arm;
lastChange = "2019-06-21 21:56:49 +0000";
layers = (
{
layerId = "3F0EE33B-F72D-4BDD-9E60-96B83BD7A098";
paths = (
{
closed = 1;
nodes = (
"742 718 LINE",
"20 718 LINE",
"20 427 LINE",
"736 409 LINE"
);
}
);
width = 762;
}
);
},
{
glyphname = DIagonal_left;
lastChange = "2019-06-21 21:56:49 +0000";
layers = (
{
layerId = "3F0EE33B-F72D-4BDD-9E60-96B83BD7A098";
paths = (
{
closed = 1;
nodes = (
"426 0 LINE",
"426 350 LINE",
"364 718 LINE",
"20 718 LINE",
"261 0 LINE"
);
}
